# Blender v2.82 (sub 7) OBJ File: ''
# www.blender.org
mtllib azure_kinect_black.mtl
o Azure_Kinect.001
v 0.008416 0.025900 0.000759
v 0.008450 0.025900 0.000000
v -0.000028 0.025900 0.000000
v 0.008309 0.025900 0.001538
v 0.008416 0.025900 -0.000759
v 0.008309 0.025900 -0.001538
v 0.008124 0.025900 -0.002325
v 0.007857 0.025900 -0.003110
v 0.007506 0.025900 -0.003881
v 0.007073 0.025900 -0.004624
v 0.006560 0.025900 -0.005326
v 0.005975 0.025900 -0.005975
v 0.005326 0.025900 -0.006560
v 0.004624 0.025900 -0.007073
v 0.003881 0.025900 -0.007506
v 0.003110 0.025900 -0.007857
v 0.002325 0.025900 -0.008124
v 0.001538 0.025900 -0.008309
v 0.000759 0.025900 -0.008416
v 0.000000 0.025900 -0.008450
v -0.000759 0.025900 -0.008416
v -0.001538 0.025900 -0.008309
v -0.002325 0.025900 -0.008124
v -0.003110 0.025900 -0.007857
v -0.003881 0.025900 -0.007506
v -0.004624 0.025900 -0.007073
v -0.005326 0.025900 -0.006560
v -0.005975 0.025900 -0.005975
v -0.006560 0.025900 -0.005326
v -0.007073 0.025900 -0.004624
v -0.007506 0.025900 -0.003881
v -0.007857 0.025900 -0.003110
v -0.008124 0.025900 -0.002325
v -0.008309 0.025900 -0.001538
v -0.008416 0.025900 -0.000759
v -0.008450 0.025900 0.000000
v -0.008416 0.025900 0.000759
v -0.008309 0.025900 0.001538
v -0.008124 0.025900 0.002325
v -0.007857 0.025900 0.003110
v -0.007506 0.025900 0.003881
v -0.007073 0.025900 0.004624
v -0.006560 0.025900 0.005326
v -0.005975 0.025900 0.005975
v -0.005326 0.025900 0.006560
v -0.004624 0.025900 0.007073
v -0.003881 0.025900 0.007506
v -0.003110 0.025900 0.007857
v -0.002325 0.025900 0.008124
v -0.001538 0.025900 0.008309
v -0.000759 0.025900 0.008416
v 0.000000 0.025900 0.008450
v 0.000759 0.025900 0.008416
v 0.001538 0.025900 0.008309
v 0.002325 0.025900 0.008124
v 0.003110 0.025900 0.007857
v 0.003881 0.025900 0.007506
v 0.004624 0.025900 0.007073
v 0.005326 0.025900 0.006560
v 0.005975 0.025900 0.005975
v 0.006560 0.025900 0.005326
v 0.007073 0.025900 0.004624
v 0.007506 0.025900 0.003881
v 0.007857 0.025900 0.003110
v 0.008124 0.025900 0.002325
v -0.008347 0.025700 -0.001314
v -0.008309 0.025500 -0.001538
v -0.008020 0.025700 -0.002663
v -0.008124 0.025500 -0.002325
v -0.007857 0.025500 -0.003110
v -0.006149 0.025700 -0.005796
v -0.005611 0.025700 -0.006318
v -0.005975 0.025500 -0.005975
v -0.005031 0.025700 -0.006789
v -0.005326 0.025500 -0.006560
v -0.004415 0.025700 -0.007205
v -0.004624 0.025500 -0.007073
v -0.001762 0.025700 -0.008264
v -0.002325 0.025500 -0.008124
v -0.000870 0.025700 -0.008405
v 0.000870 0.025700 -0.008405
v 0.000759 0.025500 -0.008416
v 0.001762 0.025700 -0.008264
v 0.002663 0.025700 -0.008020
v 0.002325 0.025500 -0.008124
v 0.003553 0.025700 -0.007667
v 0.004415 0.025700 -0.007205
v 0.005229 0.025700 -0.006638
v 0.004624 0.025500 -0.007073
v 0.007205 0.025700 -0.004415
v 0.007073 0.025500 -0.004624
v 0.007667 0.025700 -0.003553
v 0.008020 0.025700 -0.002663
v 0.008264 0.025700 -0.001762
v 0.008405 0.025700 -0.000870
v 0.008347 0.025700 0.001314
v 0.008020 0.025700 0.002663
v 0.006638 0.025700 0.005229
v 0.005031 0.025700 0.006789
v 0.004415 0.025700 0.007205
v 0.001762 0.025700 0.008264
v 0.000870 0.025700 0.008405
v -0.000870 0.025700 0.008405
v -0.001762 0.025700 0.008264
v -0.001538 0.025500 0.008309
v -0.002663 0.025700 0.008020
v -0.003553 0.025700 0.007667
v -0.003881 0.025500 0.007506
v -0.007205 0.025700 0.004415
v -0.007667 0.025700 0.003553
v -0.008020 0.025700 0.002663
v -0.018106 0.025900 0.001253
v -0.018050 0.025900 0.000000
v -0.032032 0.025900 0.000000
v -0.018283 0.025900 0.002538
v -0.018106 0.025900 -0.001253
v -0.018283 0.025900 -0.002538
v -0.018588 0.025900 -0.003838
v -0.019029 0.025900 -0.005135
v -0.019608 0.025900 -0.006407
v -0.020324 0.025900 -0.007634
v -0.021170 0.025900 -0.008793
v -0.022136 0.025900 -0.009864
v -0.023207 0.025900 -0.010830
v -0.024366 0.025900 -0.011676
v -0.025593 0.025900 -0.012392
v -0.026865 0.025900 -0.012971
v -0.028162 0.025900 -0.013412
v -0.029462 0.025900 -0.013717
v -0.030747 0.025900 -0.013894
v -0.032000 0.025900 -0.013950
v -0.033253 0.025900 -0.013894
v -0.034538 0.025900 -0.013717
v -0.035838 0.025900 -0.013412
v -0.037135 0.025900 -0.012971
v -0.038407 0.025900 -0.012392
v -0.039634 0.025900 -0.011676
v -0.040793 0.025900 -0.010830
v -0.041864 0.025900 -0.009864
v -0.042830 0.025900 -0.008793
v -0.043676 0.025900 -0.007634
v -0.044392 0.025900 -0.006407
v -0.044971 0.025900 -0.005135
v -0.045412 0.025900 -0.003838
v -0.045717 0.025900 -0.002538
v -0.045894 0.025900 -0.001253
v -0.045950 0.025900 0.000000
v -0.045894 0.025900 0.001253
v -0.045717 0.025900 0.002538
v -0.045412 0.025900 0.003838
v -0.044971 0.025900 0.005135
v -0.044392 0.025900 0.006407
v -0.043676 0.025900 0.007634
v -0.042830 0.025900 0.008793
v -0.041864 0.025900 0.009864
v -0.040793 0.025900 0.010830
v -0.039634 0.025900 0.011676
v -0.038407 0.025900 0.012392
v -0.037135 0.025900 0.012971
v -0.035838 0.025900 0.013412
v -0.034538 0.025900 0.013717
v -0.033253 0.025900 0.013894
v -0.032000 0.025900 0.013950
v -0.030747 0.025900 0.013894
v -0.029462 0.025900 0.013717
v -0.028162 0.025900 0.013412
v -0.026865 0.025900 0.012971
v -0.025593 0.025900 0.012392
v -0.024366 0.025900 0.011676
v -0.023207 0.025900 0.010830
v -0.022136 0.025900 0.009864
v -0.021170 0.025900 0.008793
v -0.020324 0.025900 0.007634
v -0.019608 0.025900 0.006407
v -0.019029 0.025900 0.005135
v -0.018588 0.025900 0.003838
v -0.034909 0.025700 -0.013643
v -0.029091 0.025700 -0.013643
v -0.027604 0.025700 -0.013239
v -0.023368 0.025700 -0.010959
v -0.021041 0.025700 -0.008632
v -0.018220 0.025700 0.002169
v -0.019702 0.025700 0.006586
v -0.021041 0.025700 0.008632
v -0.021848 0.025700 0.009568
v -0.022736 0.025700 0.010430
v -0.023695 0.025700 0.011208
v -0.030565 0.025700 0.013876
v -0.033435 0.025700 0.013876
v -0.034909 0.025700 0.013643
v -0.034538 0.025500 0.013717
v -0.036396 0.025700 0.013239
v -0.037866 0.025700 0.012657
v -0.039289 0.025700 0.011894
v -0.042959 0.025700 0.008632
v -0.043894 0.025700 0.007289
v -0.045643 0.025700 0.002909
vn 0.0000 1.0000 0.0000
vn -0.9900 0.0375 -0.1360
vn -0.9711 -0.0694 -0.2283
vn -0.9661 -0.1076 -0.2347
vn -0.9661 0.1076 -0.2347
vn -0.9711 0.0694 -0.2283
vn -0.9456 0.0497 -0.3216
vn -0.9456 -0.0497 -0.3216
vn -0.7419 0.0461 -0.6689
vn -0.6961 -0.0369 -0.7170
vn -0.6961 0.0369 -0.7170
vn -0.6686 0.0553 -0.7416
vn -0.6298 -0.0413 -0.7757
vn -0.6298 0.0413 -0.7757
vn -0.6686 -0.0553 -0.7416
vn -0.5886 0.0547 -0.8065
vn -0.5591 -0.0362 -0.8283
vn -0.5591 0.0362 -0.8283
vn -0.5886 -0.0547 -0.8065
vn -0.5034 0.0448 -0.8629
vn -0.2286 0.0393 -0.9727
vn -0.1558 -0.0457 -0.9867
vn -0.1360 0.0221 -0.9905
vn 0.1360 0.0221 -0.9905
vn 0.1558 -0.0457 -0.9867
vn 0.2286 0.0393 -0.9727
vn 0.2617 -0.0605 -0.9632
vn 0.2617 0.0605 -0.9632
vn 0.3216 0.0497 -0.9456
vn 0.3676 -0.0678 -0.9275
vn 0.4137 0.0520 -0.9089
vn 0.4713 -0.0661 -0.8795
vn 0.5034 0.0448 -0.8629
vn 0.5708 -0.0543 -0.8193
vn 0.5708 0.0543 -0.8193
vn 0.5893 0.0274 -0.8074
vn 0.8629 0.0448 -0.5034
vn 0.8795 -0.0661 -0.4713
vn 0.9089 0.0520 -0.4137
vn 0.9275 -0.0678 -0.3676
vn 0.9456 0.0497 -0.3216
vn 0.9632 -0.0605 -0.2617
vn 0.9727 0.0393 -0.2286
vn 0.9867 -0.0457 -0.1558
vn 0.9905 0.0221 -0.1360
vn 0.9900 0.0375 0.1360
vn 0.9711 -0.0694 0.2283
vn 0.9661 -0.1076 0.2347
vn 0.9456 0.0497 0.3216
vn 0.8074 0.0275 0.5893
vn 0.5886 0.0547 0.8065
vn 0.5591 -0.0362 0.8283
vn 0.5034 0.0448 0.8629
vn 0.2286 0.0393 0.9727
vn 0.1558 -0.0457 0.9867
vn 0.1360 0.0221 0.9905
vn -0.1360 0.0221 0.9905
vn -0.1558 -0.0457 0.9867
vn -0.1558 0.0457 0.9867
vn -0.2286 0.0393 0.9727
vn -0.2617 -0.0605 0.9632
vn -0.3216 0.0497 0.9456
vn -0.3676 -0.0678 0.9275
vn -0.4137 0.0520 0.9089
vn -0.8629 0.0448 0.5034
vn -0.8795 -0.0661 0.4713
vn -0.9089 0.0520 0.4137
vn -0.9275 -0.0678 0.3676
vn -0.9456 0.0497 0.3216
vn -0.2283 0.0648 -0.9714
vn 0.2283 0.0647 -0.9714
vn 0.2609 -0.0996 -0.9602
vn 0.3209 0.0819 -0.9436
vn 0.5889 0.0453 -0.8069
vn 0.8069 0.0453 -0.5889
vn 0.9888 0.0618 0.1358
vn 0.9671 -0.1141 0.2273
vn 0.9087 -0.0577 0.4135
vn 0.8629 0.0440 0.5034
vn 0.8069 0.0453 0.5889
vn 0.7568 -0.0380 0.6525
vn 0.7406 0.0760 0.6677
vn 0.6953 -0.0609 0.7161
vn 0.6668 0.0910 0.7396
vn 0.6289 -0.0681 0.7745
vn 0.5871 0.0901 0.8045
vn 0.1360 0.0365 0.9900
vn -0.1360 0.0365 0.9900
vn -0.1555 -0.0753 0.9850
vn -0.1555 0.0753 0.9850
vn -0.2283 0.0648 0.9714
vn -0.2609 -0.0996 0.9602
vn -0.3209 0.0819 0.9436
vn -0.3661 -0.1115 0.9239
vn -0.4127 0.0856 0.9068
vn -0.4695 -0.1087 0.8762
vn -0.5025 0.0738 0.8614
vn -0.8069 0.0453 0.5889
vn -0.8172 -0.0895 0.5693
vn -0.8614 0.0738 0.5025
vn -0.9714 0.0647 0.2283
usemtl None
s off
f 1//1 2//1 3//1
f 4//1 1//1 3//1
f 3//1 2//1 5//1
f 3//1 5//1 6//1
f 6//1 7//1 3//1
f 3//1 7//1 8//1
f 3//1 8//1 9//1
f 9//1 10//1 3//1
f 3//1 10//1 11//1
f 3//1 11//1 12//1
f 12//1 13//1 3//1
f 3//1 13//1 14//1
f 3//1 14//1 15//1
f 15//1 16//1 3//1
f 3//1 16//1 17//1
f 3//1 17//1 18//1
f 18//1 19//1 3//1
f 3//1 19//1 20//1
f 3//1 20//1 21//1
f 21//1 22//1 3//1
f 3//1 22//1 23//1
f 3//1 23//1 24//1
f 24//1 25//1 3//1
f 3//1 25//1 26//1
f 3//1 26//1 27//1
f 27//1 28//1 3//1
f 3//1 28//1 29//1
f 3//1 29//1 30//1
f 30//1 31//1 3//1
f 3//1 31//1 32//1
f 3//1 32//1 33//1
f 33//1 34//1 3//1
f 3//1 34//1 35//1
f 3//1 35//1 36//1
f 36//1 37//1 3//1
f 3//1 37//1 38//1
f 3//1 38//1 39//1
f 39//1 40//1 3//1
f 3//1 40//1 41//1
f 3//1 41//1 42//1
f 42//1 43//1 3//1
f 3//1 43//1 44//1
f 3//1 44//1 45//1
f 45//1 46//1 3//1
f 3//1 46//1 47//1
f 3//1 47//1 48//1
f 48//1 49//1 3//1
f 3//1 49//1 50//1
f 3//1 50//1 51//1
f 51//1 52//1 3//1
f 3//1 52//1 53//1
f 3//1 53//1 54//1
f 54//1 55//1 3//1
f 3//1 55//1 56//1
f 3//1 56//1 57//1
f 57//1 58//1 3//1
f 3//1 58//1 59//1
f 3//1 59//1 60//1
f 60//1 61//1 3//1
f 3//1 61//1 62//1
f 3//1 62//1 63//1
f 63//1 64//1 3//1
f 3//1 64//1 65//1
f 3//1 65//1 4//1
f 66//2 35//2 34//2
f 66//3 34//3 33//3
f 66//4 33//4 68//4
f 68//5 69//5 66//5
f 69//6 67//6 66//6
f 68//7 33//7 32//7
f 70//8 69//8 68//8
f 71//9 29//9 28//9
f 71//10 28//10 72//10
f 72//11 73//11 71//11
f 72//12 28//12 27//12
f 72//13 27//13 74//13
f 74//14 75//14 72//14
f 72//15 75//15 73//15
f 74//16 27//16 26//16
f 74//17 26//17 76//17
f 76//18 77//18 74//18
f 74//19 77//19 75//19
f 76//20 26//20 25//20
f 78//21 23//21 22//21
f 78//22 22//22 80//22
f 80//23 22//23 21//23
f 81//24 19//24 18//24
f 81//25 18//25 83//25
f 83//26 18//26 17//26
f 83//27 17//27 84//27
f 84//28 85//28 83//28
f 84//29 17//29 16//29
f 84//30 16//30 86//30
f 86//31 16//31 15//31
f 86//32 15//32 87//32
f 87//33 15//33 14//33
f 87//34 14//34 88//34
f 88//35 89//35 87//35
f 88//36 14//36 13//36
f 90//37 10//37 9//37
f 90//38 9//38 92//38
f 92//39 9//39 8//39
f 92//40 8//40 93//40
f 93//41 8//41 7//41
f 93//42 7//42 94//42
f 94//43 7//43 6//43
f 94//44 6//44 95//44
f 95//45 6//45 5//45
f 96//46 1//46 4//46
f 96//47 4//47 65//47
f 96//48 65//48 97//48
f 97//49 65//49 64//49
f 61//50 98//50 62//50
f 99//51 59//51 58//51
f 99//52 58//52 100//52
f 100//53 58//53 57//53
f 101//54 55//54 54//54
f 101//55 54//55 102//55
f 102//56 54//56 53//56
f 103//57 51//57 50//57
f 103//58 50//58 104//58
f 104//59 105//59 103//59
f 104//60 50//60 49//60
f 104//61 49//61 106//61
f 106//62 49//62 48//62
f 106//63 48//63 107//63
f 107//64 48//64 47//64
f 109//65 42//65 41//65
f 109//66 41//66 110//66
f 110//67 41//67 40//67
f 110//68 40//68 111//68
f 111//69 40//69 39//69
f 112//1 113//1 114//1
f 115//1 112//1 114//1
f 114//1 113//1 116//1
f 114//1 116//1 117//1
f 117//1 118//1 114//1
f 114//1 118//1 119//1
f 114//1 119//1 120//1
f 120//1 121//1 114//1
f 114//1 121//1 122//1
f 114//1 122//1 123//1
f 123//1 124//1 114//1
f 114//1 124//1 125//1
f 114//1 125//1 126//1
f 126//1 127//1 114//1
f 114//1 127//1 128//1
f 114//1 128//1 129//1
f 129//1 130//1 114//1
f 114//1 130//1 131//1
f 114//1 131//1 132//1
f 132//1 133//1 114//1
f 114//1 133//1 134//1
f 114//1 134//1 135//1
f 135//1 136//1 114//1
f 114//1 136//1 137//1
f 114//1 137//1 138//1
f 138//1 139//1 114//1
f 114//1 139//1 140//1
f 114//1 140//1 141//1
f 141//1 142//1 114//1
f 114//1 142//1 143//1
f 114//1 143//1 144//1
f 144//1 145//1 114//1
f 114//1 145//1 146//1
f 114//1 146//1 147//1
f 147//1 148//1 114//1
f 114//1 148//1 149//1
f 114//1 149//1 150//1
f 150//1 151//1 114//1
f 114//1 151//1 152//1
f 114//1 152//1 153//1
f 153//1 154//1 114//1
f 114//1 154//1 155//1
f 114//1 155//1 156//1
f 156//1 157//1 114//1
f 114//1 157//1 158//1
f 114//1 158//1 159//1
f 159//1 160//1 114//1
f 114//1 160//1 161//1
f 114//1 161//1 162//1
f 162//1 163//1 114//1
f 114//1 163//1 164//1
f 114//1 164//1 165//1
f 165//1 166//1 114//1
f 114//1 166//1 167//1
f 114//1 167//1 168//1
f 168//1 169//1 114//1
f 114//1 169//1 170//1
f 114//1 170//1 171//1
f 171//1 172//1 114//1
f 114//1 172//1 173//1
f 114//1 173//1 174//1
f 174//1 175//1 114//1
f 114//1 175//1 176//1
f 114//1 176//1 115//1
f 177//70 134//70 133//70
f 178//71 129//71 128//71
f 178//72 128//72 179//72
f 179//73 128//73 127//73
f 180//74 125//74 124//74
f 181//75 122//75 121//75
f 182//76 112//76 115//76
f 182//77 115//77 176//77
f 183//78 175//78 174//78
f 183//79 174//79 173//79
f 172//80 184//80 173//80
f 184//81 172//81 185//81
f 185//82 172//82 171//82
f 185//83 171//83 186//83
f 186//84 171//84 170//84
f 186//85 170//85 187//85
f 187//86 170//86 169//86
f 188//87 165//87 164//87
f 189//88 162//88 161//88
f 189//89 161//89 190//89
f 190//90 191//90 189//90
f 190//91 161//91 160//91
f 190//92 160//92 192//92
f 192//93 160//93 159//93
f 192//94 159//94 193//94
f 193//95 159//95 158//95
f 193//96 158//96 194//96
f 194//97 158//97 157//97
f 195//98 154//98 153//98
f 195//99 153//99 196//99
f 196//100 153//100 152//100
f 197//101 150//101 149//101
l 78 79
l 81 82
l 90 91
l 107 108
