# Blender v2.82 (sub 7) OBJ File: ''
# www.blender.org
mtllib azure_kinect_black_2.mtl
o Azure_Kinect.001_Azure_Kinect.002
v -0.009250 0.025900 0.000000
v -0.009213 0.025900 0.000831
v -0.009096 0.025900 0.001683
v -0.008893 0.025900 0.002545
v -0.008601 0.025900 0.003405
v -0.008217 0.025900 0.004248
v -0.007742 0.025900 0.005062
v -0.007181 0.025900 0.005830
v -0.006541 0.025900 0.006541
v -0.005830 0.025900 0.007181
v -0.005062 0.025900 0.007742
v -0.004248 0.025900 0.008217
v -0.003405 0.025900 0.008601
v -0.002545 0.025900 0.008893
v -0.001683 0.025900 0.009096
v -0.000831 0.025900 0.009213
v 0.000000 0.025900 0.009250
v 0.000831 0.025900 0.009213
v 0.001683 0.025900 0.009096
v 0.002545 0.025900 0.008893
v 0.003405 0.025900 0.008601
v 0.004248 0.025900 0.008217
v 0.005062 0.025900 0.007742
v 0.005830 0.025900 0.007181
v 0.006541 0.025900 0.006541
v 0.007181 0.025900 0.005830
v 0.007742 0.025900 0.005062
v 0.008217 0.025900 0.004248
v 0.008601 0.025900 0.003405
v 0.008893 0.025900 0.002545
v 0.009096 0.025900 0.001683
v 0.009213 0.025900 0.000831
v 0.009250 0.025900 0.000000
v 0.009213 0.025900 -0.000831
v 0.009096 0.025900 -0.001683
v 0.008893 0.025900 -0.002545
v 0.008601 0.025900 -0.003405
v 0.008217 0.025900 -0.004248
v 0.007742 0.025900 -0.005062
v 0.007181 0.025900 -0.005830
v 0.006541 0.025900 -0.006541
v 0.005830 0.025900 -0.007181
v 0.005062 0.025900 -0.007742
v 0.004248 0.025900 -0.008217
v 0.003405 0.025900 -0.008601
v 0.002545 0.025900 -0.008893
v 0.001683 0.025900 -0.009096
v 0.000831 0.025900 -0.009213
v 0.000000 0.025900 -0.009250
v -0.000831 0.025900 -0.009213
v -0.001683 0.025900 -0.009096
v -0.002545 0.025900 -0.008893
v -0.003405 0.025900 -0.008601
v -0.004248 0.025900 -0.008217
v -0.005062 0.025900 -0.007742
v -0.005830 0.025900 -0.007181
v -0.006541 0.025900 -0.006541
v -0.007181 0.025900 -0.005830
v -0.007742 0.025900 -0.005062
v -0.008217 0.025900 -0.004248
v -0.008601 0.025900 -0.003405
v -0.008893 0.025900 -0.002545
v -0.009096 0.025900 -0.001683
v -0.009213 0.025900 -0.000831
v -0.046750 0.025900 0.000000
v -0.046690 0.025900 0.001325
v -0.046504 0.025900 0.002684
v -0.046181 0.025900 0.004059
v -0.045714 0.025900 0.005429
v -0.045102 0.025900 0.006775
v -0.044346 0.025900 0.008071
v -0.043451 0.025900 0.009297
v -0.042430 0.025900 0.010430
v -0.041297 0.025900 0.011451
v -0.040071 0.025900 0.012346
v -0.038775 0.025900 0.013102
v -0.037429 0.025900 0.013714
v -0.036059 0.025900 0.014181
v -0.034684 0.025900 0.014504
v -0.033325 0.025900 0.014690
v -0.032000 0.025900 0.014750
v -0.030675 0.025900 0.014690
v -0.029316 0.025900 0.014504
v -0.027941 0.025900 0.014181
v -0.026571 0.025900 0.013714
v -0.025225 0.025900 0.013102
v -0.023929 0.025900 0.012346
v -0.022703 0.025900 0.011451
v -0.021570 0.025900 0.010430
v -0.020549 0.025900 0.009297
v -0.019654 0.025900 0.008071
v -0.018898 0.025900 0.006775
v -0.018286 0.025900 0.005429
v -0.017819 0.025900 0.004059
v -0.017496 0.025900 0.002684
v -0.017310 0.025900 0.001325
v -0.017250 0.025900 0.000000
v -0.017310 0.025900 -0.001325
v -0.017496 0.025900 -0.002684
v -0.017819 0.025900 -0.004059
v -0.018286 0.025900 -0.005429
v -0.018898 0.025900 -0.006775
v -0.019654 0.025900 -0.008071
v -0.020549 0.025900 -0.009297
v -0.021570 0.025900 -0.010430
v -0.022703 0.025900 -0.011451
v -0.023929 0.025900 -0.012346
v -0.025225 0.025900 -0.013102
v -0.026571 0.025900 -0.013714
v -0.027941 0.025900 -0.014181
v -0.029316 0.025900 -0.014504
v -0.030675 0.025900 -0.014690
v -0.032000 0.025900 -0.014750
v -0.033325 0.025900 -0.014690
v -0.034684 0.025900 -0.014504
v -0.036059 0.025900 -0.014181
v -0.037429 0.025900 -0.013714
v -0.038775 0.025900 -0.013102
v -0.040071 0.025900 -0.012346
v -0.041297 0.025900 -0.011451
v -0.042430 0.025900 -0.010430
v -0.043451 0.025900 -0.009297
v -0.044346 0.025900 -0.008071
v -0.045102 0.025900 -0.006775
v -0.045714 0.025900 -0.005429
v -0.046181 0.025900 -0.004059
v -0.046504 0.025900 -0.002684
v -0.046690 0.025900 -0.001325
v 0.038000 0.025900 0.018000
v 0.040184 0.025900 0.017800
v 0.041302 0.025900 0.017537
v 0.042417 0.025900 0.017157
v 0.043512 0.025900 0.016659
v 0.044567 0.025900 0.016044
v 0.045564 0.025900 0.015316
v 0.046485 0.025900 0.014485
v 0.047316 0.025900 0.013564
v 0.048044 0.025900 0.012567
v 0.048659 0.025900 0.011512
v 0.049157 0.025900 0.010417
v 0.049537 0.025900 0.009302
v 0.049800 0.025900 0.008184
v 0.049951 0.025900 0.007078
v 0.050000 0.025900 0.006000
v -0.038000 0.025900 0.018000
v -0.050000 0.025900 0.006000
v -0.049951 0.025900 0.007078
v -0.049800 0.025900 0.008184
v -0.049537 0.025900 0.009302
v -0.049157 0.025900 0.010417
v -0.048659 0.025900 0.011512
v -0.048044 0.025900 0.012567
v -0.047316 0.025900 0.013564
v -0.046485 0.025900 0.014485
v -0.045564 0.025900 0.015316
v -0.044567 0.025900 0.016044
v -0.043512 0.025900 0.016659
v -0.042417 0.025900 0.017157
v -0.041302 0.025900 0.017537
v -0.040184 0.025900 0.017800
v -0.039078 0.025900 0.017951
v -0.050000 0.025900 -0.006000
v 0.050000 0.025900 -0.006000
v -0.038000 0.025900 -0.018000
v -0.039078 0.025900 -0.017951
v -0.040184 0.025900 -0.017800
v -0.041302 0.025900 -0.017537
v -0.042417 0.025900 -0.017157
v -0.043512 0.025900 -0.016659
v -0.044567 0.025900 -0.016044
v -0.045564 0.025900 -0.015316
v -0.046485 0.025900 -0.014485
v -0.047316 0.025900 -0.013564
v -0.048044 0.025900 -0.012567
v -0.048659 0.025900 -0.011512
v -0.049157 0.025900 -0.010417
v -0.049537 0.025900 -0.009302
v -0.049800 0.025900 -0.008184
v -0.049951 0.025900 -0.007078
v 0.049951 0.025900 -0.007078
v 0.038000 0.025900 -0.018000
v 0.046485 0.025900 -0.014485
v 0.047316 0.025900 -0.013564
v 0.045564 0.025900 -0.015316
v 0.044567 0.025900 -0.016044
v 0.043512 0.025900 -0.016659
v 0.042417 0.025900 -0.017157
v 0.041302 0.025900 -0.017537
v 0.040184 0.025900 -0.017800
v 0.048044 0.025900 -0.012567
v 0.048659 0.025900 -0.011512
v 0.049537 0.025900 -0.009302
v 0.049157 0.025900 -0.010417
v 0.049800 0.025900 -0.008184
vn 0.0000 1.0000 0.0000
usemtl None
s off
f 163//1 33//1 144//1
f 180//1 39//1 163//1
f 163//1 39//1 38//1
f 163//1 38//1 37//1
f 37//1 36//1 163//1
f 163//1 36//1 35//1
f 163//1 35//1 34//1
f 34//1 33//1 163//1
f 144//1 33//1 32//1
f 144//1 32//1 31//1
f 31//1 30//1 144//1
f 144//1 30//1 29//1
f 144//1 29//1 28//1
f 28//1 27//1 144//1
f 26//1 142//1 27//1
f 27//1 142//1 143//1
f 27//1 143//1 144//1
f 25//1 141//1 26//1
f 26//1 141//1 142//1
f 24//1 139//1 25//1
f 25//1 139//1 140//1
f 25//1 140//1 141//1
f 23//1 137//1 24//1
f 24//1 137//1 138//1
f 24//1 138//1 139//1
f 129//1 137//1 23//1
f 23//1 22//1 129//1
f 129//1 136//1 137//1
f 135//1 136//1 129//1
f 129//1 134//1 135//1
f 129//1 133//1 134//1
f 132//1 133//1 129//1
f 129//1 131//1 132//1
f 129//1 130//1 131//1
f 17//1 85//1 129//1
f 129//1 85//1 84//1
f 129//1 84//1 145//1
f 129//1 22//1 21//1
f 129//1 21//1 20//1
f 20//1 19//1 129//1
f 129//1 19//1 18//1
f 129//1 18//1 17//1
f 16//1 86//1 17//1
f 17//1 86//1 85//1
f 15//1 87//1 16//1
f 16//1 87//1 86//1
f 14//1 88//1 15//1
f 15//1 88//1 87//1
f 13//1 89//1 14//1
f 14//1 89//1 88//1
f 12//1 90//1 13//1
f 13//1 90//1 89//1
f 11//1 90//1 12//1
f 11//1 91//1 90//1
f 10//1 91//1 11//1
f 10//1 92//1 91//1
f 9//1 92//1 10//1
f 8//1 93//1 92//1
f 8//1 92//1 9//1
f 7//1 93//1 8//1
f 6//1 94//1 93//1
f 6//1 93//1 7//1
f 5//1 94//1 6//1
f 5//1 95//1 94//1
f 4//1 95//1 5//1
f 3//1 96//1 95//1
f 3//1 95//1 4//1
f 2//1 96//1 3//1
f 2//1 97//1 96//1
f 1//1 97//1 2//1
f 64//1 98//1 97//1
f 64//1 97//1 1//1
f 63//1 98//1 64//1
f 63//1 99//1 98//1
f 62//1 99//1 63//1
f 61//1 100//1 99//1
f 61//1 99//1 62//1
f 60//1 100//1 61//1
f 60//1 101//1 100//1
f 59//1 101//1 60//1
f 58//1 102//1 101//1
f 58//1 101//1 59//1
f 57//1 102//1 58//1
f 56//1 103//1 102//1
f 56//1 102//1 57//1
f 55//1 103//1 56//1
f 55//1 104//1 103//1
f 54//1 104//1 55//1
f 53//1 105//1 104//1
f 53//1 104//1 54//1
f 52//1 105//1 53//1
f 52//1 106//1 105//1
f 51//1 106//1 52//1
f 51//1 107//1 106//1
f 50//1 107//1 51//1
f 50//1 108//1 107//1
f 49//1 108//1 50//1
f 49//1 109//1 108//1
f 181//1 109//1 49//1
f 49//1 48//1 181//1
f 181//1 110//1 109//1
f 164//1 110//1 181//1
f 164//1 111//1 110//1
f 165//1 115//1 164//1
f 164//1 115//1 114//1
f 164//1 114//1 113//1
f 113//1 112//1 164//1
f 164//1 112//1 111//1
f 165//1 166//1 115//1
f 115//1 166//1 167//1
f 115//1 167//1 168//1
f 115//1 168//1 116//1
f 116//1 168//1 169//1
f 116//1 169//1 170//1
f 116//1 170//1 117//1
f 117//1 170//1 171//1
f 117//1 171//1 118//1
f 118//1 171//1 172//1
f 118//1 172//1 173//1
f 118//1 173//1 119//1
f 119//1 173//1 174//1
f 119//1 174//1 120//1
f 120//1 174//1 175//1
f 120//1 175//1 121//1
f 121//1 175//1 176//1
f 121//1 176//1 122//1
f 122//1 176//1 177//1
f 122//1 177//1 123//1
f 123//1 177//1 178//1
f 123//1 178//1 179//1
f 123//1 179//1 124//1
f 124//1 179//1 162//1
f 124//1 162//1 125//1
f 125//1 162//1 126//1
f 126//1 162//1 127//1
f 127//1 162//1 128//1
f 128//1 162//1 65//1
f 65//1 162//1 146//1
f 65//1 146//1 66//1
f 66//1 146//1 67//1
f 67//1 146//1 68//1
f 68//1 146//1 69//1
f 69//1 146//1 70//1
f 70//1 146//1 147//1
f 70//1 147//1 71//1
f 71//1 147//1 148//1
f 71//1 148//1 149//1
f 71//1 149//1 72//1
f 72//1 149//1 150//1
f 72//1 150//1 73//1
f 73//1 150//1 151//1
f 73//1 151//1 74//1
f 74//1 151//1 152//1
f 74//1 152//1 75//1
f 75//1 152//1 153//1
f 75//1 153//1 76//1
f 76//1 153//1 154//1
f 76//1 154//1 155//1
f 76//1 155//1 77//1
f 77//1 155//1 156//1
f 77//1 156//1 78//1
f 78//1 156//1 157//1
f 78//1 157//1 158//1
f 78//1 158//1 79//1
f 79//1 158//1 159//1
f 79//1 159//1 160//1
f 160//1 161//1 79//1
f 79//1 161//1 145//1
f 79//1 145//1 80//1
f 145//1 84//1 83//1
f 145//1 83//1 82//1
f 80//1 145//1 81//1
f 81//1 145//1 82//1
f 182//1 181//1 183//1
f 183//1 181//1 43//1
f 182//1 184//1 181//1
f 181//1 184//1 185//1
f 181//1 185//1 186//1
f 186//1 187//1 181//1
f 181//1 187//1 188//1
f 181//1 188//1 189//1
f 181//1 48//1 47//1
f 181//1 47//1 46//1
f 46//1 45//1 181//1
f 181//1 45//1 44//1
f 181//1 44//1 43//1
f 42//1 190//1 183//1
f 183//1 43//1 42//1
f 41//1 191//1 42//1
f 42//1 191//1 190//1
f 40//1 192//1 41//1
f 41//1 192//1 193//1
f 41//1 193//1 191//1
f 39//1 194//1 40//1
f 40//1 194//1 192//1
f 180//1 194//1 39//1
