# Blender 3.6.0 Alpha
# www.blender.org
mtllib velodnye_black.mtl
o Shape_IndexedFaceSet.164
v 0.009357 0.019296 0.049930
v 0.009221 0.057396 0.049279
v 0.000000 0.057396 0.050135
v 0.000000 0.019296 0.050800
v 0.018128 0.057396 0.046742
v 0.018403 0.019296 0.047349
v 0.026394 0.057396 0.042625
v 0.026782 0.019296 0.043167
v 0.033779 0.057396 0.037047
v 0.034255 0.019296 0.037512
v 0.040015 0.057396 0.030204
v 0.040560 0.019296 0.030586
v 0.044881 0.057396 0.022343
v 0.045480 0.019296 0.022632
v 0.048221 0.057396 0.013722
v 0.048861 0.019296 0.013901
v 0.050583 0.019296 0.004687
v 0.049921 0.057396 0.004626
v 0.050583 0.019296 -0.004685
v 0.049921 0.057396 -0.004624
v 0.048224 0.057396 -0.013710
v 0.048858 0.019296 -0.013911
v 0.044891 0.057396 -0.022322
v 0.045470 0.019296 -0.022652
v 0.040034 0.057396 -0.030178
v 0.040541 0.019296 -0.030611
v 0.033813 0.057396 -0.037016
v 0.034221 0.019296 -0.037543
v 0.026440 0.057396 -0.042597
v 0.026736 0.019296 -0.043195
v 0.018168 0.057396 -0.046727
v 0.018363 0.019296 -0.047364
v 0.009241 0.057396 -0.049275
v 0.009336 0.019296 -0.049934
v -0.000000 0.019296 -0.050800
v -0.000000 0.057396 -0.050135
vn 0.1842 0.0174 0.9827
vn 0.1839 0.0174 0.9828
vn 0.0924 0.0173 0.9956
vn 0.0925 0.0174 0.9956
vn 0.3614 0.0175 0.9323
vn 0.3620 0.0174 0.9320
vn 0.5264 0.0175 0.8500
vn 0.5271 0.0174 0.8496
vn 0.6737 0.0175 0.7388
vn 0.6742 0.0174 0.7383
vn 0.7980 0.0175 0.6024
vn 0.7983 0.0174 0.6021
vn 0.8951 0.0175 0.4456
vn 0.8952 0.0174 0.4454
vn 0.9617 0.0175 0.2736
vn 0.9617 0.0174 0.2735
vn 0.9956 0.0175 0.0923
vn 0.9956 0.0174 -0.0923
vn 0.9956 0.0175 -0.0922
vn 0.9618 0.0175 -0.2734
vn 0.9616 0.0174 -0.2737
vn 0.8953 0.0175 -0.4452
vn 0.8950 0.0174 -0.4458
vn 0.7984 0.0175 -0.6019
vn 0.7979 0.0174 -0.6026
vn 0.6743 0.0175 -0.7382
vn 0.6736 0.0173 -0.7389
vn 0.5273 0.0176 -0.8495
vn 0.5263 0.0173 -0.8501
vn 0.3621 0.0176 -0.9320
vn 0.3612 0.0174 -0.9323
vn 0.1843 0.0175 -0.9827
vn 0.1838 0.0175 -0.9828
vn 0.0924 0.0174 -0.9956
vn 0.0926 0.0174 -0.9956
vt 0.008559 0.815021
vt 0.014968 0.817698
vt 0.006546 1.000000
vt 0.000000 1.000000
vt 0.039940 0.641615
vt 0.033967 0.636193
vt 0.080465 0.478202
vt 0.075129 0.470544
vt 0.135361 0.332219
vt 0.130783 0.322796
vt 0.202716 0.208932
vt 0.198960 0.198149
vt 0.280092 0.112730
vt 0.277247 0.100888
vt 0.364942 0.046710
vt 0.363184 0.034056
vt 0.453871 0.000001
vt 0.454466 0.013100
vt 0.546116 0.000000
vt 0.545515 0.013096
vt 0.634940 0.046643
vt 0.636916 0.034114
vt 0.719706 0.112529
vt 0.722949 0.101083
vt 0.797031 0.208550
vt 0.801289 0.198528
vt 0.864334 0.331546
vt 0.869518 0.323464
vt 0.919257 0.477305
vt 0.925147 0.471440
vt 0.959908 0.640837
vt 0.966185 0.636976
vt 0.984994 0.817305
vt 0.991479 0.815423
vt 1.000000 1.000000
vt 0.993454 1.000000
s 1
usemtl Shape.163
f 1/1/1 2/2/2 3/3/3
f 4/4/4 1/1/1 3/3/3
f 5/5/5 2/2/2 1/1/1
f 1/1/1 6/6/6 5/5/5
f 7/7/7 5/5/5 6/6/6
f 6/6/6 8/8/8 7/7/7
f 9/9/9 7/7/7 8/8/8
f 8/8/8 10/10/10 9/9/9
f 11/11/11 9/9/9 10/10/10
f 10/10/10 12/12/12 11/11/11
f 13/13/13 11/11/11 12/12/12
f 12/12/12 14/14/14 13/13/13
f 15/15/15 13/13/13 14/14/14
f 14/14/14 16/16/16 15/15/15
f 15/15/15 16/16/16 17/17/17
f 18/18/17 15/15/15 17/17/17
f 19/19/18 20/20/19 18/18/17
f 17/17/17 19/19/18 18/18/17
f 21/21/20 20/20/19 19/19/18
f 19/19/18 22/22/21 21/21/20
f 23/23/22 21/21/20 22/22/21
f 22/22/21 24/24/23 23/23/22
f 25/25/24 23/23/22 24/24/23
f 24/24/23 26/26/25 25/25/24
f 27/27/26 25/25/24 26/26/25
f 26/26/25 28/28/27 27/27/26
f 29/29/28 27/27/26 28/28/27
f 28/28/27 30/30/29 29/29/28
f 31/31/30 29/29/28 30/30/29
f 30/30/29 32/32/31 31/31/30
f 33/33/32 31/31/30 32/32/31
f 32/32/31 34/34/33 33/33/32
f 33/33/32 34/34/33 35/35/34
f 36/36/35 33/33/32 35/35/34
o Shape_IndexedFaceSet.165
v -0.009357 0.019296 -0.049930
v -0.009221 0.057396 -0.049279
v -0.000000 0.057396 -0.050135
v -0.000000 0.019296 -0.050800
v -0.018128 0.057396 -0.046742
v -0.018403 0.019296 -0.047349
v -0.026394 0.057396 -0.042625
v -0.026782 0.019296 -0.043167
v -0.033779 0.057396 -0.037047
v -0.034255 0.019296 -0.037512
v -0.040015 0.057396 -0.030204
v -0.040560 0.019296 -0.030586
v -0.044881 0.057396 -0.022343
v -0.045480 0.019296 -0.022632
v -0.048221 0.057396 -0.013722
v -0.048861 0.019296 -0.013901
v -0.050583 0.019296 -0.004687
v -0.049921 0.057396 -0.004626
v -0.050583 0.019296 0.004685
v -0.049921 0.057396 0.004624
v -0.048224 0.057396 0.013710
v -0.048858 0.019296 0.013911
v -0.044891 0.057396 0.022322
v -0.045470 0.019296 0.022652
v -0.040034 0.057396 0.030178
v -0.040541 0.019296 0.030611
v -0.033813 0.057396 0.037016
v -0.034221 0.019296 0.037543
v -0.026440 0.057396 0.042597
v -0.026736 0.019296 0.043195
v -0.018168 0.057396 0.046727
v -0.018363 0.019296 0.047364
v -0.009241 0.057396 0.049275
v -0.009336 0.019296 0.049934
v 0.000000 0.019296 0.050800
v 0.000000 0.057396 0.050135
vn -0.1842 0.0174 -0.9827
vn -0.1839 0.0174 -0.9828
vn -0.0924 0.0173 -0.9956
vn -0.0925 0.0174 -0.9956
vn -0.3614 0.0175 -0.9323
vn -0.3620 0.0174 -0.9320
vn -0.5264 0.0175 -0.8500
vn -0.5271 0.0174 -0.8496
vn -0.6737 0.0175 -0.7388
vn -0.6742 0.0174 -0.7383
vn -0.7980 0.0175 -0.6024
vn -0.7983 0.0174 -0.6021
vn -0.8951 0.0175 -0.4456
vn -0.8952 0.0174 -0.4454
vn -0.9617 0.0175 -0.2736
vn -0.9617 0.0174 -0.2735
vn -0.9956 0.0175 -0.0923
vn -0.9956 0.0174 0.0923
vn -0.9956 0.0175 0.0922
vn -0.9618 0.0175 0.2734
vn -0.9616 0.0174 0.2737
vn -0.8953 0.0175 0.4452
vn -0.8950 0.0174 0.4458
vn -0.7984 0.0175 0.6019
vn -0.7979 0.0174 0.6026
vn -0.6743 0.0175 0.7382
vn -0.6736 0.0173 0.7389
vn -0.5273 0.0176 0.8495
vn -0.5263 0.0173 0.8501
vn -0.3621 0.0176 0.9320
vn -0.3612 0.0174 0.9323
vn -0.1843 0.0175 0.9827
vn -0.1838 0.0175 0.9828
vn -0.0924 0.0174 0.9956
vn -0.0926 0.0174 0.9956
vt 0.991441 0.184979
vt 0.985032 0.182302
vt 0.993454 0.000000
vt 1.000000 0.000000
vt 0.960060 0.358385
vt 0.966033 0.363807
vt 0.919535 0.521798
vt 0.924871 0.529456
vt 0.864639 0.667781
vt 0.869217 0.677204
vt 0.797284 0.791068
vt 0.801040 0.801851
vt 0.719908 0.887270
vt 0.722753 0.899112
vt 0.635058 0.953290
vt 0.636816 0.965944
vt 0.546129 0.999999
vt 0.545534 0.986900
vt 0.453884 1.000000
vt 0.454485 0.986904
vt 0.365060 0.953357
vt 0.363084 0.965886
vt 0.280294 0.887471
vt 0.277051 0.898917
vt 0.202969 0.791450
vt 0.198711 0.801472
vt 0.135666 0.668454
vt 0.130482 0.676536
vt 0.080743 0.522695
vt 0.074853 0.528560
vt 0.040092 0.359163
vt 0.033815 0.363024
vt 0.015006 0.182695
vt 0.008521 0.184577
vt 0.000000 0.000000
vt 0.006546 0.000000
s 1
usemtl Shape.164
f 37/37/36 38/38/37 39/39/38
f 40/40/39 37/37/36 39/39/38
f 41/41/40 38/38/37 37/37/36
f 37/37/36 42/42/41 41/41/40
f 43/43/42 41/41/40 42/42/41
f 42/42/41 44/44/43 43/43/42
f 45/45/44 43/43/42 44/44/43
f 44/44/43 46/46/45 45/45/44
f 47/47/46 45/45/44 46/46/45
f 46/46/45 48/48/47 47/47/46
f 49/49/48 47/47/46 48/48/47
f 48/48/47 50/50/49 49/49/48
f 51/51/50 49/49/48 50/50/49
f 50/50/49 52/52/51 51/51/50
f 51/51/50 52/52/51 53/53/52
f 54/54/52 51/51/50 53/53/52
f 55/55/53 56/56/54 54/54/52
f 53/53/52 55/55/53 54/54/52
f 57/57/55 56/56/54 55/55/53
f 55/55/53 58/58/56 57/57/55
f 59/59/57 57/57/55 58/58/56
f 58/58/56 60/60/58 59/59/57
f 61/61/59 59/59/57 60/60/58
f 60/60/58 62/62/60 61/61/59
f 63/63/61 61/61/59 62/62/60
f 62/62/60 64/64/62 63/63/61
f 65/65/63 63/63/61 64/64/62
f 64/64/62 66/66/64 65/65/63
f 67/67/65 65/65/63 66/66/64
f 66/66/64 68/68/66 67/67/65
f 69/69/67 67/67/65 68/68/66
f 68/68/66 70/70/68 69/69/67
f 69/69/67 70/70/68 71/71/69
f 72/72/70 69/69/67 71/71/69
o Shape_IndexedFaceSet.211
v -0.121386 0.008183 0.002240
v -0.121386 0.007227 0.002528
v -0.121386 0.006235 0.002427
v -0.121386 0.005365 0.001956
v -0.121386 0.004742 0.001191
v -0.121386 0.004457 0.000245
v -0.121386 0.004554 -0.000737
v -0.121386 0.005020 -0.001609
v -0.121386 0.005787 -0.002240
v -0.121386 0.006743 -0.002528
v -0.121386 0.007735 -0.002427
v -0.121386 0.008605 -0.001956
v -0.121386 0.009228 -0.001191
v -0.121386 0.009513 -0.000245
v -0.121386 0.009416 0.000737
v -0.121386 0.008950 0.001609
v -0.045186 0.005787 -0.002240
v -0.045186 0.006737 -0.002528
v -0.045186 0.007721 -0.002431
v -0.045186 0.008592 -0.001967
v -0.045186 0.009221 -0.001205
v -0.045186 0.009511 -0.000263
v -0.045186 0.009420 0.000723
v -0.045186 0.008954 0.001605
v -0.045186 0.008183 0.002240
v -0.045186 0.007233 0.002528
v -0.045186 0.006249 0.002431
v -0.045186 0.005378 0.001967
v -0.045186 0.004749 0.001205
v -0.045186 0.004459 0.000263
v -0.045186 0.004550 -0.000723
v -0.045186 0.005016 -0.001605
vn -1.0000 -0.0000 -0.0000
vt 0.451514 0.000000
vt 0.264468 0.056319
vt 0.113174 0.179523
vt 0.020036 0.351721
vt 0.645699 0.019236
vt 0.000000 0.547954
vt 0.818197 0.111327
vt 0.057063 0.736979
vt 0.942937 0.263021
vt 0.181803 0.888673
vt 1.000000 0.452046
vt 0.354301 0.980764
vt 0.979964 0.648279
vt 0.548486 1.000000
vt 0.886826 0.820477
vt 0.735532 0.943681
s 1
usemtl Shape.210
f 78/73/71 77/74/71 76/75/71
f 76/75/71 75/76/71 78/73/71
f 79/77/71 78/73/71 75/76/71
f 75/76/71 74/78/71 79/77/71
f 80/79/71 79/77/71 74/78/71
f 74/78/71 73/80/71 80/79/71
f 81/81/71 80/79/71 73/80/71
f 73/80/71 88/82/71 81/81/71
f 82/83/71 81/81/71 88/82/71
f 88/82/71 87/84/71 82/83/71
f 83/85/71 82/83/71 87/84/71
f 87/84/71 86/86/71 83/85/71
f 84/87/71 83/85/71 86/86/71
f 86/86/71 85/88/71 84/87/71
o Shape_IndexedFaceSet.212
v -0.121386 0.008183 0.002240
v -0.121386 0.007227 0.002528
v -0.121386 0.006235 0.002427
v -0.121386 0.005365 0.001956
v -0.121386 0.004742 0.001191
v -0.121386 0.004457 0.000245
v -0.121386 0.004554 -0.000737
v -0.121386 0.005020 -0.001609
v -0.121386 0.005787 -0.002240
v -0.121386 0.006743 -0.002528
v -0.121386 0.007735 -0.002427
v -0.121386 0.008605 -0.001956
v -0.121386 0.009228 -0.001191
v -0.121386 0.009513 -0.000245
v -0.121386 0.009416 0.000737
v -0.121386 0.008950 0.001609
v -0.045186 0.005787 -0.002240
v -0.045186 0.006737 -0.002528
v -0.045186 0.007721 -0.002431
v -0.045186 0.008592 -0.001967
v -0.045186 0.009221 -0.001205
v -0.045186 0.009511 -0.000263
v -0.045186 0.009420 0.000723
v -0.045186 0.008954 0.001605
v -0.045186 0.008183 0.002240
v -0.045186 0.007233 0.002528
v -0.045186 0.006249 0.002431
v -0.045186 0.005378 0.001967
v -0.045186 0.004749 0.001205
v -0.045186 0.004459 0.000263
v -0.045186 0.004550 -0.000723
v -0.045186 0.005016 -0.001605
vn -0.0000 0.7750 0.6319
vn -0.0000 0.7735 0.6338
vn -0.0000 0.6352 0.7724
vn -0.0000 0.6360 0.7717
vn -0.0000 0.9569 0.2903
vn -0.0000 0.9584 0.2855
vn -0.0000 0.9953 -0.0967
vn -0.0000 0.9947 -0.1031
vn -0.0000 0.8833 -0.4688
vn -0.0000 0.8802 -0.4747
vn -0.0000 0.6378 -0.7702
vn -0.0000 0.6328 -0.7743
vn -0.0000 0.2944 -0.9557
vn -0.0000 0.2895 -0.9572
vn -0.0000 -0.0956 -0.9954
vn -0.0000 -0.0980 -0.9952
vn -0.0000 -0.2901 -0.9570
vn -0.0000 -0.2890 -0.9573
vt 0.000000 0.133178
vt 1.000000 0.132288
vt 1.000000 0.000000
vt 0.000000 0.000000
vt 1.000000 0.315225
vt 0.000000 0.318088
vt 1.000000 0.521162
vt 0.000000 0.524813
vt 1.000000 0.719527
vt 0.000000 0.722545
vt 1.000000 0.879977
vt 0.000000 0.882312
vt 1.000000 0.978751
vt 0.000000 0.979626
vt 1.000000 1.000000
vt 0.000000 0.999899
vt 0.000000 0.939483
vt 1.000000 0.939483
s 1
usemtl Shape.211
f 128/89/72 120/90/73 105/91/74
f 129/92/75 128/89/72 105/91/74
f 119/93/76 120/90/73 128/89/72
f 128/89/72 127/94/77 119/93/76
f 118/95/78 119/93/76 127/94/77
f 127/94/77 126/96/79 118/95/78
f 117/97/80 118/95/78 126/96/79
f 126/96/79 125/98/81 117/97/80
f 116/99/82 117/97/80 125/98/81
f 125/98/81 124/100/83 116/99/82
f 115/101/84 116/99/82 124/100/83
f 124/100/83 123/102/85 115/101/84
f 114/103/86 115/101/84 123/102/85
f 123/102/85 122/104/87 114/103/86
f 114/103/86 122/104/87 121/105/88
f 113/106/89 114/103/86 121/105/88
o Shape_IndexedFaceSet.213
v -0.121386 0.008183 0.002240
v -0.121386 0.007227 0.002528
v -0.121386 0.006235 0.002427
v -0.121386 0.005365 0.001956
v -0.121386 0.004742 0.001191
v -0.121386 0.004457 0.000245
v -0.121386 0.004554 -0.000737
v -0.121386 0.005020 -0.001609
v -0.121386 0.005787 -0.002240
v -0.121386 0.006743 -0.002528
v -0.121386 0.007735 -0.002427
v -0.121386 0.008605 -0.001956
v -0.121386 0.009228 -0.001191
v -0.121386 0.009513 -0.000245
v -0.121386 0.009416 0.000737
v -0.121386 0.008950 0.001609
v -0.045186 0.005787 -0.002240
v -0.045186 0.006737 -0.002528
v -0.045186 0.007721 -0.002431
v -0.045186 0.008592 -0.001967
v -0.045186 0.009221 -0.001205
v -0.045186 0.009511 -0.000263
v -0.045186 0.009420 0.000723
v -0.045186 0.008954 0.001605
v -0.045186 0.008183 0.002240
v -0.045186 0.007233 0.002528
v -0.045186 0.006249 0.002431
v -0.045186 0.005378 0.001967
v -0.045186 0.004749 0.001205
v -0.045186 0.004459 0.000263
v -0.045186 0.004550 -0.000723
v -0.045186 0.005016 -0.001605
vn -0.0000 -0.7750 -0.6319
vn -0.0000 -0.7735 -0.6338
vn -0.0000 -0.6352 -0.7724
vn -0.0000 -0.6360 -0.7717
vn -0.0000 -0.9569 -0.2903
vn -0.0000 -0.9584 -0.2855
vn -0.0000 -0.9953 0.0967
vn -0.0000 -0.9947 0.1031
vn -0.0000 -0.8833 0.4688
vn -0.0000 -0.8802 0.4747
vn -0.0000 -0.6378 0.7702
vn -0.0000 -0.6328 0.7743
vn -0.0000 -0.2944 0.9557
vn -0.0000 -0.2895 0.9572
vn -0.0000 0.0956 0.9954
vn -0.0000 0.0980 0.9952
vn -0.0000 0.2901 0.9570
vn -0.0000 0.2890 0.9573
vt 0.000000 0.866822
vt 1.000000 0.867712
vt 1.000000 1.000000
vt 0.000000 1.000000
vt 1.000000 0.684775
vt 0.000000 0.681912
vt 1.000000 0.478838
vt 0.000000 0.475187
vt 1.000000 0.280473
vt 0.000000 0.277455
vt 1.000000 0.120023
vt 0.000000 0.117688
vt 1.000000 0.021249
vt 0.000000 0.020374
vt 1.000000 0.000000
vt 0.000000 0.000101
vt 0.000000 0.060517
vt 1.000000 0.060517
s 1
usemtl Shape.212
f 168/107/90 144/108/91 145/109/92
f 153/110/93 168/107/90 145/109/92
f 143/111/94 144/108/91 168/107/90
f 168/107/90 167/112/95 143/111/94
f 142/113/96 143/111/94 167/112/95
f 167/112/95 166/114/97 142/113/96
f 141/115/98 142/113/96 166/114/97
f 166/114/97 165/116/99 141/115/98
f 140/117/100 141/115/98 165/116/99
f 165/116/99 164/118/101 140/117/100
f 139/119/102 140/117/100 164/118/101
f 164/118/101 163/120/103 139/119/102
f 138/121/104 139/119/102 163/120/103
f 163/120/103 162/122/105 138/121/104
f 138/121/104 162/122/105 161/123/106
f 137/124/107 138/121/104 161/123/106
