# Blender 3.6.0 Alpha
# www.blender.org
mtllib floor.mtl
o Shape_IndexedFaceSet
v 1.500000 -1.500000 0.010000
v -1.500000 -1.500000 0.010000
v -1.500000 1.500000 0.010000
v 1.500000 1.500000 0.010000
v 1.500000 -1.500000 -0.000000
v 1.500000 1.500000 -0.000000
v -1.500000 1.500000 0.000000
v -1.500000 -1.500000 0.000000
vn -0.0000 -0.0000 1.0000
vt 1.000000 0.000000
vt 0.000000 0.000000
vt 1.000000 1.000000
vt 0.000000 1.000000
s 1
usemtl Shape
f 2/1/1 1/2/1 3/3/1
f 4/4/1 3/3/1 1/2/1
o Shape_IndexedFaceSet.001
v 1.500000 -1.500000 0.010000
v -1.500000 -1.500000 0.010000
v -1.500000 1.500000 0.010000
v 1.500000 1.500000 0.010000
v 1.500000 -1.500000 -0.000000
v 1.500000 1.500000 -0.000000
v -1.500000 1.500000 0.000000
v -1.500000 -1.500000 0.000000
vn -0.0000 -0.0000 -1.0000
vt 0.000000 0.000000
vt 1.000000 0.000000
vt 0.000000 1.000000
vt 1.000000 1.000000
s 1
usemtl Shape.001
f 13/5/2 16/6/2 14/7/2
f 15/8/2 14/7/2 16/6/2
o Shape_IndexedFaceSet.002
v 1.500000 -1.500000 0.010000
v -1.500000 -1.500000 0.010000
v -1.500000 1.500000 0.010000
v 1.500000 1.500000 0.010000
v 1.500000 -1.500000 -0.000000
v 1.500000 1.500000 -0.000000
v -1.500000 1.500000 0.000000
v -1.500000 -1.500000 0.000000
vn -0.0000 -1.0000 -0.0000
vt 1.000000 1.000000
vt 0.000000 1.000000
vt 1.000000 0.000000
vt 0.000000 0.000000
s 1
f 24/9/3 21/10/3 18/11/3
f 17/12/3 18/11/3 21/10/3
o Shape_IndexedFaceSet.003
v 1.500000 -1.500000 0.010000
v -1.500000 -1.500000 0.010000
v -1.500000 1.500000 0.010000
v 1.500000 1.500000 0.010000
v 1.500000 -1.500000 -0.000000
v 1.500000 1.500000 -0.000000
v -1.500000 1.500000 0.000000
v -1.500000 -1.500000 0.000000
vn -1.0000 -0.0000 -0.0000
vt 1.000000 1.000000
vt 0.000000 1.000000
vt 1.000000 0.000000
vt 0.000000 0.000000
s 1
f 31/13/4 32/14/4 27/15/4
f 26/16/4 27/15/4 32/14/4
o Shape_IndexedFaceSet.004
v 1.500000 -1.500000 0.010000
v -1.500000 -1.500000 0.010000
v -1.500000 1.500000 0.010000
v 1.500000 1.500000 0.010000
v 1.500000 -1.500000 -0.000000
v 1.500000 1.500000 -0.000000
v -1.500000 1.500000 0.000000
v -1.500000 -1.500000 0.000000
vn -0.0000 1.0000 -0.0000
vt 0.000000 1.000000
vt 1.000000 1.000000
vt 0.000000 0.000000
vt 1.000000 0.000000
s 1
f 38/17/5 39/18/5 36/19/5
f 35/20/5 36/19/5 39/18/5
o Shape_IndexedFaceSet.005
v 1.500000 -1.500000 0.010000
v -1.500000 -1.500000 0.010000
v -1.500000 1.500000 0.010000
v 1.500000 1.500000 0.010000
v 1.500000 -1.500000 -0.000000
v 1.500000 1.500000 -0.000000
v -1.500000 1.500000 0.000000
v -1.500000 -1.500000 0.000000
vn 1.0000 -0.0000 -0.0000
vt 0.000000 1.000000
vt 1.000000 1.000000
vt 0.000000 0.000000
vt 1.000000 0.000000
s 1
f 45/21/6 46/22/6 41/23/6
f 44/24/6 41/23/6 46/22/6
